<svg width="39" height="40" viewBox="0 0 39 40" fill="none" xmlns="http://www.w3.org/2000/svg">
<circle cx="19.4219" cy="19.8125" r="18.839" fill="#121418" stroke="#6CE9BC" stroke-width="1.16584"/>
<path fill-rule="evenodd" clip-rule="evenodd" d="M19.4218 9.71988C16.8218 9.71988 14.2278 10.6064 12.1153 12.3789C10.8439 13.4458 9.86122 14.744 9.17876 16.1655C9.08405 16.1564 8.99188 16.1359 8.89463 16.1359C7.19644 16.1359 5.8291 17.5032 5.8291 19.2014V22.9901C5.8291 24.6882 7.19644 26.0555 8.89463 26.0555C8.99189 26.0555 9.08405 26.0345 9.17876 26.026C9.30095 26.2792 9.42738 26.5306 9.56986 26.7776C10.1269 27.7718 11.615 26.9206 11.0404 25.9364C8.68754 21.8611 9.59874 16.697 13.2034 13.6723C16.8082 10.6475 22.0442 10.6475 25.6489 13.6723C29.2537 16.697 30.1649 21.8611 27.812 25.9364L27.7866 25.9786L27.7697 26.0208C27.7697 26.0208 26.627 28.5488 24.3831 28.5488L21.5426 28.5234C21.2763 28.1344 20.8499 27.8635 20.3409 27.8635H18.5099C17.6889 27.8635 17.0285 28.5261 17.0285 29.3471C17.0285 29.8535 17.3498 30.2381 18.0852 30.2381L24.383 30.2386C27.7503 30.2386 29.2067 26.9328 29.273 26.7798V26.7708C29.4142 26.526 29.5385 26.2746 29.6598 26.0235C29.7588 26.0326 29.8552 26.0531 29.9571 26.0531C31.6553 26.0531 33.0226 24.6858 33.0226 22.9876V19.1989C33.0226 17.5008 31.6553 16.1335 29.9571 16.1335C29.859 16.1335 29.7664 16.1497 29.6708 16.163C28.99 14.7414 28.0102 13.4434 26.7386 12.3765C24.6262 10.6039 22.0213 9.71741 19.4212 9.71741L19.4218 9.71988ZM15.7271 15.1058C15.0672 15.0627 14.4643 15.2022 13.9376 15.7569C12.533 17.2357 11.6652 19.2484 11.6652 21.3919C11.6652 23.1599 12.2561 25.141 13.2515 25.2133C14.6696 25.3165 16.9074 24.3852 19.4262 24.3852C22.0954 24.3852 24.4509 25.4301 25.8478 25.1828C26.6943 25.0331 27.1893 23.0095 27.1893 21.3919C27.1893 19.2484 26.3194 17.2357 24.9148 15.7569C23.5101 14.2781 21.5696 15.7569 19.4262 15.7569C18.0866 15.7569 16.8269 15.178 15.7271 15.1058ZM15.4125 18.7502C16.1956 18.7505 16.8303 19.3852 16.8305 20.1683C16.8303 20.9514 16.1956 21.5861 15.4125 21.5863C14.6295 21.5861 13.9947 20.9514 13.9945 20.1683C13.9947 19.3852 14.6295 18.7505 15.4125 18.7502ZM23.44 18.7502C24.2231 18.7505 24.8578 19.3852 24.8581 20.1683C24.8578 20.9514 24.2231 21.5861 23.44 21.5863C22.657 21.5861 22.0223 20.9514 22.022 20.1683C22.0223 19.3852 22.657 18.7505 23.44 18.7502Z" fill="#6CE9BC"/>
</svg>
