<?xml version="1.0" encoding="UTF-8" standalone="no"?>
<!DOCTYPE svg PUBLIC "-//W3C//DTD SVG 1.1//EN" "http://www.w3.org/Graphics/SVG/1.1/DTD/svg11.dtd">
<svg width="39px" height="40px" viewBox="0 0 325 325" version="1.1" xmlns="http://www.w3.org/2000/svg" xmlns:xlink="http://www.w3.org/1999/xlink" xml:space="preserve" xmlns:serif="http://www.serif.com/" style="fill-rule:evenodd;clip-rule:evenodd;stroke-linejoin:round;stroke-miterlimit:2;">
    <g transform="matrix(1,0,0,1,-797.93,-377.93)">
        <g transform="matrix(2.97376,0,0,2.97376,164.917,-1037.37)">
            <g id="Chatlect-logo" serif:id="Chatlect logo">
                <g transform="matrix(0,-1,-1,0,267.366,475.929)">
                    <path d="M-54.5,-54.5C-84.6,-54.5 -109,-30.1 -109,0C-109,30.1 -84.6,54.5 -54.5,54.5C-24.4,54.5 0,30.1 0,0C0,-30.1 -24.4,-54.5 -54.5,-54.5" style="fill:rgb(108,233,188);fill-rule:nonzero;"/>
                </g>
                <g transform="matrix(1,0,0,1,264.07,519.072)">
                    <path d="M0,-18.408C5.035,-19.098 10.068,-18.456 14.645,-16.658C19.232,-14.856 23.362,-11.9 26.581,-7.969C27.41,-6.956 28.18,-5.87 28.886,-4.719C29.574,-3.595 30.19,-2.416 30.728,-1.191L26.413,0.69C25.968,-0.324 25.451,-1.311 24.865,-2.266C24.297,-3.195 23.65,-4.102 22.931,-4.981C20.227,-8.283 16.767,-10.762 12.93,-12.269C9.081,-13.781 4.854,-14.322 0.627,-13.742L0,-18.408Z" style="fill:rgb(15,15,15);fill-rule:nonzero;"/>
                </g>
                <g transform="matrix(1,0,0,1,0,-60.266)">
                    <path d="M264.07,560.93L264.697,565.595C268.924,565.016 273.152,565.557 277,567.069C280.837,568.575 284.296,571.055 287.001,574.356C287.721,575.236 288.367,576.143 288.935,577.071C289.522,578.026 290.038,579.014 290.483,580.027L294.798,578.147C294.26,576.921 293.645,575.743 292.956,574.619C292.25,573.468 291.48,572.381 290.651,571.369C287.433,567.438 283.303,564.481 278.715,562.679C275.345,561.356 271.727,560.658 268.043,560.658C266.725,560.658 265.397,560.748 264.07,560.93Z" style="fill:rgb(15,15,15);fill-rule:nonzero;"/>
                </g>
                <g transform="matrix(1,0,0,1,295.456,557.472)">
                    <path d="M0,-17.731C-0.9,-15.293 -2.12,-12.995 -3.621,-10.888C-5.126,-8.777 -6.901,-6.873 -8.905,-5.231C-11.915,-2.767 -15.358,-0.954 -19.021,0.147C-22.669,1.243 -26.538,1.623 -30.414,1.224L-29.935,-3.46C-26.69,-3.127 -23.441,-3.448 -20.366,-4.372C-17.306,-5.291 -14.421,-6.812 -11.893,-8.882C-10.194,-10.273 -8.705,-11.867 -7.457,-13.618C-6.205,-15.375 -5.184,-17.302 -4.426,-19.354L0,-17.731Z" style="fill:rgb(15,15,15);fill-rule:nonzero;"/>
                </g>
                <g transform="matrix(1,0,0,1,0,17.214)">
                    <path d="M287.999,526.641C286.751,528.391 285.261,529.985 283.564,531.376C281.035,533.447 278.15,534.968 275.089,535.886C272.014,536.811 268.765,537.132 265.522,536.799L265.042,541.483C268.918,541.88 272.787,541.501 276.436,540.405C280.098,539.305 283.541,537.491 286.551,535.027C288.554,533.385 290.33,531.481 291.835,529.37C293.336,527.264 294.556,524.965 295.456,522.527L291.03,520.905C290.272,522.956 289.251,524.884 287.999,526.641Z" style="fill:rgb(15,15,15);fill-rule:nonzero;"/>
                </g>
                <g transform="matrix(1,0,0,1,245.413,512.788)">
                    <path d="M0,35.352C-4.154,30.278 -6.363,24.121 -6.588,17.888C-6.813,11.66 -5.055,5.363 -1.276,0L2.578,2.71C-0.597,7.216 -2.074,12.5 -1.886,17.722C-1.697,22.937 0.158,28.099 3.651,32.365L0,35.352Z" style="fill:rgb(15,15,15);fill-rule:nonzero;"/>
                </g>
                <g transform="matrix(1,0,0,1,0,-19.072)">
                    <path d="M238.825,549.747C239.05,555.981 241.258,562.137 245.413,567.212L249.064,564.225C245.571,559.959 243.715,554.797 243.527,549.582C243.339,544.36 244.816,539.076 247.991,534.57L244.137,531.86C240.359,537.223 238.6,543.519 238.825,549.747Z" style="fill:rgb(15,15,15);fill-rule:nonzero;"/>
                </g>
                <g transform="matrix(1,0,0,1,239.416,496.48)">
                    <path d="M0,13.564C0.295,14.149 0.461,14.81 0.461,15.509C0.461,17.9 -1.477,19.838 -3.867,19.838C-6.259,19.838 -8.196,17.9 -8.196,15.509C-8.196,13.188 -6.37,11.294 -4.076,11.186C-0.578,5.962 4.061,1.732 9.392,-1.252C15.179,-4.493 21.78,-6.274 28.623,-6.274C30.38,-6.274 32.164,-6.15 33.962,-5.903C35.327,-5.716 36.682,-5.458 38.02,-5.129C38.778,-5.785 39.767,-6.182 40.849,-6.182C43.239,-6.182 45.178,-4.243 45.178,-1.853C45.178,0.538 43.239,2.476 40.849,2.476C38.892,2.476 37.238,1.178 36.702,-0.605C35.589,-0.872 34.466,-1.083 33.335,-1.238C31.806,-1.448 30.231,-1.553 28.623,-1.553C22.593,-1.553 16.783,0.012 11.696,2.86C7.079,5.445 3.056,9.084 0,13.564M40.849,-3.65C41.841,-3.65 42.646,-2.845 42.646,-1.853C42.646,-0.86 41.841,-0.055 40.849,-0.055C39.855,-0.055 39.051,-0.86 39.051,-1.853C39.051,-2.845 39.855,-3.65 40.849,-3.65M-3.867,13.712C-2.875,13.712 -2.07,14.517 -2.07,15.509C-2.07,16.502 -2.875,17.307 -3.867,17.307C-4.86,17.307 -5.665,16.502 -5.665,15.509C-5.665,14.517 -4.86,13.712 -3.867,13.712" style="fill:rgb(15,15,15);"/>
                </g>
                <g transform="matrix(1,0,0,1,0,-73.476)">
                    <path d="M248.808,568.704C243.477,571.689 238.837,575.919 235.34,581.142C233.046,581.251 231.22,583.144 231.22,585.466C231.22,587.857 233.158,589.794 235.549,589.794C237.939,589.794 239.877,587.857 239.877,585.466C239.877,584.766 239.71,584.105 239.416,583.52C242.472,579.04 246.495,575.402 251.113,572.817C256.199,569.968 262.009,568.403 268.039,568.403C269.647,568.403 271.221,568.508 272.751,568.719C273.882,568.874 275.005,569.085 276.118,569.352C276.655,571.135 278.308,572.432 280.264,572.432C282.655,572.432 284.594,570.495 284.594,568.104C284.594,565.713 282.655,563.774 280.264,563.774C279.183,563.774 278.194,564.172 277.436,564.827C276.098,564.499 274.743,564.241 273.378,564.053C271.58,563.807 269.796,563.683 268.039,563.683C261.196,563.683 254.595,565.464 248.808,568.704ZM278.467,568.104C278.467,567.112 279.272,566.307 280.264,566.307C281.257,566.307 282.062,567.112 282.062,568.104C282.062,569.097 281.257,569.902 280.264,569.902C279.272,569.902 278.467,569.097 278.467,568.104ZM233.751,585.466C233.751,584.473 234.555,583.668 235.549,583.668C236.541,583.668 237.345,584.473 237.345,585.466C237.345,586.458 236.541,587.264 235.549,587.264C234.555,587.264 233.751,586.458 233.751,585.466Z" style="fill:rgb(15,15,15);fill-rule:nonzero;"/>
                </g>
                <g transform="matrix(1,0,0,1,271.21,541.299)">
                    <path d="M0,20.694C2.392,20.694 4.329,22.632 4.329,25.023C4.329,27.414 2.392,29.352 0,29.352C-1.41,29.352 -2.664,28.676 -3.454,27.631C-12.177,27.569 -20.367,24.629 -26.982,19.601C-33.396,14.725 -38.317,7.89 -40.794,-0.181C-42.579,-0.716 -43.88,-2.37 -43.88,-4.329C-43.88,-6.72 -41.941,-8.658 -39.551,-8.658C-37.16,-8.658 -35.222,-6.72 -35.222,-4.329C-35.222,-3.247 -35.619,-2.258 -36.275,-1.499C-34.089,5.586 -29.768,11.582 -24.143,15.857C-18.422,20.205 -11.342,22.776 -3.776,22.907C-3.035,21.587 -1.621,20.694 0,20.694M-39.551,-6.126C-38.559,-6.126 -37.754,-5.322 -37.754,-4.329C-37.754,-3.336 -38.559,-2.532 -39.551,-2.532C-40.544,-2.532 -41.349,-3.336 -41.349,-4.329C-41.349,-5.322 -40.544,-6.126 -39.551,-6.126M0,23.225C0.993,23.225 1.798,24.03 1.798,25.023C1.798,26.015 0.993,26.821 0,26.821C-0.992,26.821 -1.797,26.015 -1.797,25.023C-1.797,24.03 -0.992,23.225 0,23.225" style="fill:rgb(15,15,15);"/>
                </g>
                <g transform="matrix(1,0,0,1,0,23.292)">
                    <path d="M227.33,513.679C227.33,515.637 228.631,517.291 230.416,517.826C232.893,525.898 237.813,532.733 244.228,537.609C250.843,542.636 259.033,545.576 267.756,545.639C268.546,546.683 269.8,547.359 271.21,547.359C273.602,547.359 275.539,545.421 275.539,543.03C275.539,540.64 273.602,538.701 271.21,538.701C269.589,538.701 268.175,539.594 267.433,540.914C259.868,540.783 252.788,538.212 247.067,533.865C241.442,529.589 237.121,523.593 234.934,516.508C235.591,515.75 235.988,514.76 235.988,513.679C235.988,511.287 234.049,509.35 231.659,509.35C229.269,509.35 227.33,511.287 227.33,513.679ZM229.861,513.679C229.861,512.686 230.666,511.881 231.659,511.881C232.652,511.881 233.456,512.686 233.456,513.679C233.456,514.671 232.652,515.476 231.659,515.476C230.666,515.476 229.861,514.671 229.861,513.679ZM269.413,543.03C269.413,542.037 270.218,541.232 271.21,541.232C272.203,541.232 273.008,542.037 273.008,543.03C273.008,544.022 272.203,544.829 271.21,544.829C270.218,544.829 269.413,544.022 269.413,543.03Z" style="fill:rgb(15,15,15);fill-rule:nonzero;"/>
                </g>
                <g transform="matrix(1,0,0,1,292.723,512.913)">
                    <path d="M0,40.401C0.177,40.401 0.35,40.412 0.521,40.432C3.418,37.36 5.705,33.808 7.304,29.967C9.039,25.795 9.958,21.276 9.958,16.656C9.958,13.57 9.547,10.513 8.745,7.564C8.027,4.925 7.007,2.384 5.699,-0.004C3.402,-0.11 1.573,-2.006 1.573,-4.328C1.573,-6.719 3.512,-8.657 5.902,-8.657C8.293,-8.657 10.231,-6.719 10.231,-4.328C10.231,-3.624 10.063,-2.96 9.765,-2.372C11.298,0.401 12.482,3.323 13.3,6.329C14.211,9.681 14.68,13.153 14.68,16.656C14.68,21.89 13.633,27.023 11.655,31.775C9.878,36.047 7.344,40.009 4.139,43.455C4.263,43.858 4.329,44.286 4.329,44.73C4.329,47.121 2.392,49.058 0,49.058C-2.391,49.058 -4.328,47.121 -4.328,44.73C-4.328,42.338 -2.391,40.401 0,40.401M5.902,-6.126C6.895,-6.126 7.699,-5.321 7.699,-4.328C7.699,-3.335 6.895,-2.531 5.902,-2.531C4.909,-2.531 4.104,-3.335 4.104,-4.328C4.104,-5.321 4.909,-6.126 5.902,-6.126M0,42.932C0.993,42.932 1.798,43.737 1.798,44.73C1.798,45.722 0.993,46.527 0,46.527C-0.992,46.527 -1.797,45.722 -1.797,44.73C-1.797,43.737 -0.992,42.932 0,42.932" style="fill:rgb(15,15,15);"/>
                </g>
                <g transform="matrix(1,0,0,1,0,-13.771)">
                    <clipPath id="_clip1">
                        <path d="M294.296,522.357C294.296,524.679 296.125,526.574 298.422,526.68C299.73,529.069 300.75,531.609 301.468,534.248C302.27,537.198 302.681,540.255 302.681,543.34C302.681,547.961 301.762,552.479 300.027,556.652C298.427,560.493 296.141,564.044 293.243,567.117C293.072,567.096 292.9,567.086 292.722,567.086C290.332,567.086 288.394,569.023 288.394,571.415C288.394,573.805 290.332,575.743 292.722,575.743C295.115,575.743 297.052,573.805 297.052,571.415C297.052,570.97 296.986,570.543 296.861,570.139C300.066,566.694 302.601,562.732 304.378,558.459C306.355,553.707 307.402,548.574 307.402,543.34C307.402,539.838 306.933,536.366 306.022,533.013C305.205,530.007 304.021,527.085 302.487,524.312C302.785,523.724 302.954,523.06 302.954,522.357C302.954,519.965 301.016,518.028 298.625,518.028C296.234,518.028 294.296,519.965 294.296,522.357ZM296.827,522.357C296.827,521.364 297.632,520.558 298.625,520.558C299.617,520.558 300.422,521.364 300.422,522.357C300.422,523.349 299.617,524.154 298.625,524.154C297.632,524.154 296.827,523.349 296.827,522.357ZM290.926,571.415C290.926,570.421 291.73,569.616 292.722,569.616C293.716,569.616 294.52,570.421 294.52,571.415C294.52,572.406 293.716,573.211 292.722,573.211C291.73,573.211 290.926,572.406 290.926,571.415Z" clip-rule="nonzero"/>
                    </clipPath>
                    <g clip-path="url(#_clip1)">
                        <rect x="288.395" y="518.028" width="19.008" height="57.715" style="fill:rgb(15,15,15);"/>
                    </g>
                </g>
                <g transform="matrix(-1,0,0,1,268.408,534.671)">
                    <path d="M-0.001,-11.784C-3.255,-11.784 -5.893,-9.146 -5.893,-5.892C-5.893,-2.638 -3.255,0 -0.001,0C3.254,0 5.892,-2.638 5.892,-5.892C5.892,-9.146 3.254,-11.784 -0.001,-11.784" style="fill:rgb(15,15,15);"/>
                </g>
                <g transform="matrix(1,0,0,1,0,-22.444)">
                    <clipPath id="_clip2">
                        <path d="M262.516,551.222C262.516,554.476 265.154,557.114 268.409,557.114C271.663,557.114 274.301,554.476 274.301,551.222C274.301,547.968 271.663,545.331 268.409,545.331C265.154,545.331 262.516,547.968 262.516,551.222Z" clip-rule="nonzero"/>
                    </clipPath>
                    <g clip-path="url(#_clip2)">
                        <rect x="262.517" y="545.33" width="11.784" height="11.784" style="fill:rgb(15,15,15);"/>
                    </g>
                </g>
                <g transform="matrix(1,0,0,1,278.937,519.134)">
                    <path d="M0,-3.2C1.875,-3.2 3.395,-1.68 3.395,0.194C3.395,2.068 1.875,3.588 0,3.588C-1.79,3.588 -3.256,2.201 -3.385,0.444C-3.628,0.263 -3.868,0.098 -4.105,-0.051L-4.114,-0.051C-4.564,-0.333 -5.047,-0.591 -5.56,-0.822C-7.471,-1.684 -9.541,-2.018 -11.571,-1.842C-13.371,-1.685 -15.13,-1.132 -16.707,-0.194C-16.902,1.495 -18.337,2.807 -20.078,2.807C-21.953,2.807 -23.472,1.287 -23.472,-0.587C-23.472,-2.461 -21.953,-3.981 -20.078,-3.981C-19.909,-3.981 -19.743,-3.968 -19.58,-3.944C-17.251,-5.439 -14.638,-6.313 -11.977,-6.544C-9.166,-6.788 -6.289,-6.321 -3.624,-5.118C-2.94,-4.81 -2.267,-4.448 -1.606,-4.034L-1.609,-4.03C-1.172,-3.755 -0.758,-3.471 -0.37,-3.18C-0.249,-3.193 -0.125,-3.2 0,-3.2M-20.078,-1.996C-19.3,-1.996 -18.669,-1.365 -18.669,-0.587C-18.669,0.191 -19.3,0.822 -20.078,0.822C-20.856,0.822 -21.487,0.191 -21.487,-0.587C-21.487,-1.365 -20.856,-1.996 -20.078,-1.996M0,-1.216C0.778,-1.216 1.409,-0.585 1.409,0.194C1.409,0.972 0.778,1.603 0,1.603C-0.778,1.603 -1.409,0.972 -1.409,0.194C-1.409,-0.585 -0.778,-1.216 0,-1.216" style="fill:rgb(15,15,15);"/>
                </g>
                <g transform="matrix(1,0,0,1,0,-44.934)">
                    <path d="M266.961,557.524C264.299,557.755 261.687,558.628 259.357,560.124C259.195,560.099 259.028,560.087 258.86,560.087C256.984,560.087 255.466,561.606 255.466,563.481C255.466,565.355 256.984,566.875 258.86,566.875C260.6,566.875 262.035,565.563 262.23,563.873C263.808,562.935 265.567,562.383 267.367,562.226C269.396,562.05 271.467,562.384 273.378,563.246C273.891,563.477 274.373,563.735 274.823,564.016L274.832,564.016C275.07,564.166 275.31,564.33 275.553,564.512C275.682,566.269 277.148,567.655 278.938,567.655C280.813,567.655 282.332,566.136 282.332,564.261C282.332,562.387 280.813,560.868 278.938,560.868C278.813,560.868 278.689,560.874 278.567,560.888C278.18,560.596 277.765,560.313 277.328,560.037L277.331,560.034C276.671,559.62 275.997,559.257 275.314,558.949C273.105,557.953 270.751,557.461 268.409,557.461C267.925,557.461 267.442,557.482 266.961,557.524ZM257.45,563.481C257.45,562.702 258.081,562.071 258.86,562.071C259.637,562.071 260.268,562.702 260.268,563.481C260.268,564.258 259.637,564.889 258.86,564.889C258.081,564.889 257.45,564.258 257.45,563.481ZM277.529,564.261C277.529,563.483 278.159,562.852 278.938,562.852C279.715,562.852 280.346,563.483 280.346,564.261C280.346,565.04 279.715,565.67 278.938,565.67C278.159,565.67 277.529,565.04 277.529,564.261Z" style="fill:rgb(15,15,15);fill-rule:nonzero;"/>
                </g>
                <g transform="matrix(1,0,0,1,271.881,529.373)">
                    <path d="M0,10.636C0.523,10.636 1.019,10.755 1.462,10.967C2.696,10.415 3.819,9.666 4.79,8.758C5.931,7.689 6.868,6.385 7.534,4.907C7.98,3.919 8.289,2.889 8.455,1.848C8.593,0.988 8.636,0.108 8.583,-0.776C7.828,-1.398 7.348,-2.34 7.348,-3.394C7.348,-5.269 8.867,-6.788 10.741,-6.788C12.616,-6.788 14.136,-5.269 14.136,-3.394C14.136,-2.53 13.812,-1.74 13.279,-1.141C13.359,0.103 13.299,1.353 13.103,2.586C12.867,4.059 12.441,5.491 11.831,6.844C10.917,8.869 9.608,10.68 7.998,12.188C6.578,13.518 4.929,14.601 3.116,15.375C2.596,16.58 1.396,17.424 0,17.424C-1.875,17.424 -3.395,15.905 -3.395,14.03C-3.395,12.156 -1.875,10.636 0,10.636M10.741,-4.803C11.52,-4.803 12.15,-4.173 12.15,-3.394C12.15,-2.616 11.52,-1.985 10.741,-1.985C9.963,-1.985 9.332,-2.616 9.332,-3.394C9.332,-4.173 9.963,-4.803 10.741,-4.803M0,12.62C0.778,12.62 1.409,13.252 1.409,14.03C1.409,14.808 0.778,15.439 0,15.439C-0.778,15.439 -1.409,14.808 -1.409,14.03C-1.409,13.252 -0.778,12.62 0,12.62" style="fill:rgb(15,15,15);"/>
                </g>
                <g transform="matrix(1,0,0,1,0,-10.618)">
                    <clipPath id="_clip3">
                        <path d="M279.229,536.597C279.229,537.651 279.709,538.592 280.464,539.215C280.516,540.099 280.473,540.978 280.336,541.839C280.17,542.88 279.861,543.909 279.415,544.899C278.749,546.375 277.811,547.68 276.671,548.749C275.701,549.657 274.577,550.407 273.343,550.957C272.9,550.746 272.404,550.627 271.881,550.627C270.006,550.627 268.486,552.146 268.486,554.02C268.486,555.896 270.006,557.415 271.881,557.415C273.277,557.415 274.477,556.571 274.997,555.366C276.809,554.592 278.459,553.509 279.879,552.179C281.489,550.671 282.798,548.859 283.711,546.834C284.323,545.483 284.748,544.05 284.983,542.576C285.179,541.344 285.241,540.093 285.16,538.85C285.692,538.25 286.016,537.461 286.016,536.597C286.016,534.722 284.497,533.202 282.622,533.202C280.748,533.202 279.229,534.722 279.229,536.597ZM281.213,536.597C281.213,535.818 281.844,535.188 282.622,535.188C283.4,535.188 284.031,535.818 284.031,536.597C284.031,537.375 283.4,538.005 282.622,538.005C281.844,538.005 281.213,537.375 281.213,536.597ZM270.472,554.02C270.472,553.243 271.102,552.612 271.881,552.612C272.659,552.612 273.29,553.243 273.29,554.02C273.29,554.799 272.659,555.429 271.881,555.429C271.102,555.429 270.472,554.799 270.472,554.02Z" clip-rule="nonzero"/>
                    </clipPath>
                    <g clip-path="url(#_clip3)">
                        <rect x="268.486" y="533.203" width="17.53" height="24.212" style="fill:rgb(15,15,15);"/>
                    </g>
                </g>
                <g transform="matrix(1,0,0,1,263.949,528.936)">
                    <path d="M0,10.886C1.874,10.886 3.394,12.405 3.394,14.28C3.394,16.154 1.874,17.674 0,17.674C-1.522,17.674 -2.81,16.672 -3.24,15.292C-6.302,13.713 -8.725,11.278 -10.294,8.384C-11.858,5.499 -12.58,2.158 -12.246,-1.247C-12.725,-1.832 -13.012,-2.58 -13.012,-3.394C-13.012,-5.269 -11.492,-6.788 -9.618,-6.788C-7.743,-6.788 -6.224,-5.269 -6.224,-3.394C-6.224,-2.295 -6.747,-1.318 -7.558,-0.697C-7.774,1.721 -7.255,4.088 -6.146,6.134C-5.022,8.203 -3.3,9.944 -1.128,11.078C-0.775,10.954 -0.396,10.886 0,10.886M-9.618,-4.803C-8.84,-4.803 -8.209,-4.173 -8.209,-3.394C-8.209,-2.616 -8.84,-1.985 -9.618,-1.985C-10.396,-1.985 -11.027,-2.616 -11.027,-3.394C-11.027,-4.173 -10.396,-4.803 -9.618,-4.803M0,12.871C0.778,12.871 1.409,13.502 1.409,14.28C1.409,15.058 0.778,15.689 0,15.689C-0.778,15.689 -1.409,15.058 -1.409,14.28C-1.409,13.502 -0.778,12.871 0,12.871" style="fill:rgb(15,15,15);"/>
                </g>
                <g transform="matrix(1,0,0,1,0,-11.244)">
                    <clipPath id="_clip4">
                        <path d="M250.937,536.786C250.937,537.6 251.224,538.348 251.703,538.933C251.369,542.339 252.091,545.679 253.655,548.563C255.225,551.457 257.647,553.893 260.709,555.471C261.139,556.851 262.426,557.854 263.949,557.854C265.823,557.854 267.343,556.334 267.343,554.46C267.343,552.585 265.823,551.066 263.949,551.066C263.553,551.066 263.173,551.133 262.822,551.257C260.649,550.124 258.926,548.383 257.804,546.313C256.694,544.268 256.175,541.901 256.392,539.482C257.202,538.862 257.726,537.885 257.726,536.786C257.726,534.911 256.206,533.392 254.331,533.392C252.457,533.392 250.937,534.911 250.937,536.786ZM252.922,536.786C252.922,536.007 253.553,535.376 254.331,535.376C255.109,535.376 255.74,536.007 255.74,536.786C255.74,537.564 255.109,538.195 254.331,538.195C253.553,538.195 252.922,537.564 252.922,536.786ZM262.54,554.46C262.54,553.681 263.171,553.05 263.949,553.05C264.728,553.05 265.359,553.681 265.359,554.46C265.359,555.238 264.728,555.869 263.949,555.869C263.171,555.869 262.54,555.238 262.54,554.46Z" clip-rule="nonzero"/>
                    </clipPath>
                    <g clip-path="url(#_clip4)">
                        <rect x="250.937" y="533.391" width="16.405" height="24.462" style="fill:rgb(15,15,15);"/>
                    </g>
                </g>
            </g>
        </g>
    </g>
</svg>
