<svg width="24" height="24" viewBox="0 0 24 24" fill="none" xmlns="http://www.w3.org/2000/svg">
<path d="M10.3125 16.5681L6.09374 12.3485L7.28596 11.1563L10.3125 14.1819L16.7123 7.78125L17.9062 8.97516L10.3125 16.5681Z" fill="#6CE9BC"/>
<path d="M12 0.1875C9.6637 0.1875 7.37987 0.880291 5.43732 2.17827C3.49476 3.47624 1.98072 5.3211 1.08666 7.47955C0.192603 9.63801 -0.041324 12.0131 0.414464 14.3045C0.870252 16.5959 1.99528 18.7007 3.64729 20.3527C5.2993 22.0047 7.40409 23.1297 9.69549 23.5855C11.9869 24.0413 14.362 23.8074 16.5204 22.9133C18.6789 22.0193 20.5238 20.5052 21.8217 18.5627C23.1197 16.6201 23.8125 14.3363 23.8125 12C23.8125 8.86713 22.568 5.86258 20.3527 3.6473C18.1374 1.43203 15.1329 0.1875 12 0.1875ZM12 22.125C9.99746 22.125 8.03989 21.5312 6.37484 20.4186C4.70979 19.3061 3.41205 17.7248 2.64571 15.8747C1.87937 14.0246 1.67886 11.9888 2.06954 10.0247C2.46021 8.06065 3.42453 6.25655 4.84053 4.84054C6.25654 3.42454 8.06064 2.46022 10.0247 2.06955C11.9888 1.67887 14.0246 1.87938 15.8747 2.64572C17.7248 3.41206 19.3061 4.7098 20.4186 6.37485C21.5312 8.0399 22.125 9.99747 22.125 12C22.125 14.6853 21.0583 17.2607 19.1594 19.1595C17.2606 21.0583 14.6853 22.125 12 22.125Z" fill="#6CE9BC"/>
</svg>
