<svg width="13" height="14" viewBox="0 0 13 14" fill="none" xmlns="http://www.w3.org/2000/svg">
<path d="M6.5234 0.397095C4.7874 0.397095 4.5691 0.405091 3.88701 0.435477C3.20493 0.467462 2.74034 0.574613 2.33333 0.73294C1.9064 0.893522 1.5197 1.14541 1.20025 1.471C0.87486 1.79061 0.623 2.17727 0.462188 2.60408C0.303861 3.01029 0.195911 3.47568 0.164725 4.15537C0.134339 4.83905 0.126343 5.05655 0.126343 6.79495C0.126343 8.53176 0.134339 8.74926 0.164725 9.43134C0.19671 10.1126 0.303861 10.5772 0.462188 10.9842C0.626113 11.4048 0.844413 11.7615 1.20025 12.1173C1.55529 12.4731 1.91192 12.6922 2.33253 12.8554C2.74034 13.0137 3.20413 13.1216 3.88541 13.1528C4.5683 13.1832 4.7858 13.1912 6.5234 13.1912C8.261 13.1912 8.4777 13.1832 9.16059 13.1528C9.84108 13.1208 10.3073 13.0137 10.7143 12.8554C11.1409 12.6947 11.5274 12.4428 11.8466 12.1173C12.2024 11.7615 12.4207 11.4048 12.5846 10.9842C12.7421 10.5772 12.8501 10.1126 12.8821 9.43134C12.9125 8.74926 12.9205 8.53175 12.9205 6.79415C12.9205 5.05655 12.9125 4.83905 12.8821 4.15617C12.8501 3.47568 12.7421 3.01029 12.5846 2.60408C12.4238 2.17726 12.172 1.79059 11.8466 1.471C11.5272 1.14529 11.1405 0.893383 10.7135 0.73294C10.3057 0.574613 9.84028 0.466663 9.15979 0.435477C8.4769 0.405091 8.2602 0.397095 6.5218 0.397095H6.5242H6.5234ZM5.95007 1.55016H6.5242C8.23222 1.55016 8.43452 1.55576 9.10861 1.58695C9.73233 1.61493 10.0714 1.71969 10.2969 1.80685C10.5951 1.92279 10.8086 2.06193 11.0325 2.28583C11.2564 2.50972 11.3948 2.72243 11.5107 3.02149C11.5987 3.24618 11.7026 3.58523 11.7306 4.20894C11.7618 4.88303 11.7682 5.08534 11.7682 6.79255C11.7682 8.49977 11.7618 8.70288 11.7306 9.37697C11.7026 10.0007 11.5979 10.3389 11.5107 10.5644C11.4081 10.8422 11.2445 11.0933 11.0317 11.2993C10.8078 11.5232 10.5951 11.6615 10.2961 11.7775C10.0722 11.8654 9.73313 11.9694 9.10861 11.9982C8.43452 12.0285 8.23222 12.0357 6.5242 12.0357C4.81619 12.0357 4.61308 12.0285 3.93899 11.9982C3.31528 11.9694 2.97703 11.8654 2.75154 11.7775C2.47366 11.675 2.22228 11.5116 2.01587 11.2993C1.80297 11.093 1.63903 10.8416 1.53609 10.5636C1.44893 10.3389 1.34418 9.99988 1.3162 9.37617C1.28581 8.70208 1.27941 8.49977 1.27941 6.79096C1.27941 5.08294 1.28581 4.88143 1.3162 4.20734C1.34498 3.58363 1.44893 3.24459 1.53689 3.01909C1.65284 2.72083 1.79198 2.50732 2.01587 2.28343C2.23977 2.05953 2.45247 1.92119 2.75154 1.80525C2.97703 1.71729 3.31528 1.61334 3.93899 1.58455C4.52912 1.55736 4.75781 1.54937 5.95007 1.54857V1.55016ZM9.93863 2.61208C9.83782 2.61208 9.738 2.63193 9.64487 2.67051C9.55173 2.70909 9.46711 2.76563 9.39582 2.83692C9.32454 2.9082 9.268 2.99282 9.22942 3.08596C9.19084 3.17909 9.17098 3.27891 9.17098 3.37972C9.17098 3.48053 9.19084 3.58035 9.22942 3.67349C9.268 3.76662 9.32454 3.85125 9.39582 3.92253C9.46711 3.99381 9.55173 4.05036 9.64487 4.08894C9.738 4.12751 9.83782 4.14737 9.93863 4.14737C10.1422 4.14737 10.3375 4.06649 10.4814 3.92253C10.6254 3.77857 10.7063 3.58332 10.7063 3.37972C10.7063 3.17613 10.6254 2.98088 10.4814 2.83692C10.3375 2.69295 10.1422 2.61208 9.93863 2.61208ZM6.5242 3.50926C6.08846 3.50247 5.65572 3.58242 5.25117 3.74447C4.84662 3.90652 4.47835 4.14743 4.16781 4.45317C3.85726 4.75891 3.61063 5.12338 3.44229 5.52534C3.27395 5.92731 3.18726 6.35876 3.18726 6.79455C3.18726 7.23035 3.27395 7.66179 3.44229 8.06376C3.61063 8.46573 3.85726 8.8302 4.16781 9.13594C4.47835 9.44168 4.84662 9.68259 5.25117 9.84464C5.65572 10.0067 6.08846 10.0866 6.5242 10.0798C7.38664 10.0664 8.2092 9.71434 8.81433 9.09969C9.41946 8.48505 9.75863 7.65709 9.75863 6.79455C9.75863 5.93201 9.41946 5.10406 8.81433 4.48941C8.2092 3.87477 7.38664 3.52272 6.5242 3.50926ZM6.5242 4.66153C7.08981 4.66153 7.63225 4.88622 8.03219 5.28616C8.43214 5.68611 8.65682 6.22855 8.65682 6.79415C8.65682 7.35976 8.43214 7.9022 8.03219 8.30214C7.63225 8.70209 7.08981 8.92677 6.5242 8.92677C5.9586 8.92677 5.41616 8.70209 5.01621 8.30214C4.61627 7.9022 4.39158 7.35976 4.39158 6.79415C4.39158 6.22855 4.61627 5.68611 5.01621 5.28616C5.41616 4.88622 5.9586 4.66153 6.5242 4.66153Z" fill="#6CE9BC"/>
</svg>
