<svg width="39" height="39" viewBox="0 0 39 39" fill="none" xmlns="http://www.w3.org/2000/svg">
<path d="M12.2735 26.5769L12.2736 26.5769C14.2071 25.7798 16.7153 25.5172 19.8438 25.5172C22.991 25.5172 25.5134 25.7635 27.4519 26.5521C27.9333 26.7479 28.3731 26.9749 28.7738 27.2329C29.7946 27.8903 29.8199 29.3911 28.7781 30.2662C26.3619 32.2954 23.2464 33.5172 19.8439 33.5172C16.4641 33.5172 13.367 32.3115 10.9576 30.3061C9.90773 29.4323 9.93122 27.9223 10.9592 27.2589C11.3584 27.0013 11.7956 26.7739 12.2735 26.5769ZM19.8438 1.11719C9.62648 1.11719 1.34375 9.39991 1.34375 19.6172C1.34375 29.8344 9.62648 38.1172 19.8438 38.1172C30.0609 38.1172 38.3438 29.8344 38.3438 19.6172C38.3438 9.39991 30.0609 1.11719 19.8438 1.11719ZM13.1436 16.0172C13.1436 12.3169 16.1433 9.31719 19.8436 9.31719C23.5438 9.31719 26.5436 12.3169 26.5436 16.0172C26.5436 19.7174 23.5438 22.7172 19.8436 22.7172C16.1433 22.7172 13.1436 19.7174 13.1436 16.0172Z" stroke="#6CE9BC"/>
</svg>
