<svg width="14" height="12" viewBox="0 0 14 12" fill="none" xmlns="http://www.w3.org/2000/svg">
<path d="M4.43942 11.3916C9.2676 11.3916 11.9088 7.39106 11.9088 3.92786C11.9088 3.81591 11.9088 3.70236 11.904 3.59041C12.4182 3.21817 12.862 2.75732 13.2146 2.22944C12.7343 2.44122 12.2253 2.5808 11.7041 2.64365C12.2531 2.31551 12.6642 1.79921 12.8612 1.19071C12.3454 1.49627 11.7809 1.71077 11.1923 1.82482C10.7966 1.40344 10.2731 1.12428 9.70267 1.03059C9.13228 0.936909 8.54691 1.03392 8.03724 1.30661C7.52757 1.5793 7.12204 2.01244 6.88346 2.53894C6.64488 3.06545 6.58658 3.65593 6.71758 4.21892C5.67385 4.16659 4.65278 3.89545 3.72059 3.42308C2.7884 2.95072 1.96591 2.28769 1.30646 1.47698C0.97169 2.05518 0.869524 2.73912 1.02071 3.38992C1.1719 4.04071 1.56511 4.60957 2.12049 4.98097C1.70431 4.96683 1.29728 4.85508 0.932236 4.65472V4.69071C0.932954 5.29641 1.14278 5.88329 1.52626 6.35215C1.90974 6.82101 2.44334 7.14308 3.03687 7.26392C2.81158 7.32599 2.57886 7.35693 2.34519 7.35588C2.18045 7.35638 2.01604 7.34112 1.85421 7.3103C2.02196 7.83171 2.3486 8.28758 2.78838 8.61408C3.22816 8.94058 3.75904 9.12135 4.30668 9.13106C3.37636 9.86177 2.22716 10.2581 1.04418 10.2561C0.835737 10.257 0.627435 10.245 0.420471 10.2202C1.62113 10.9856 3.01552 11.3921 4.43942 11.3916Z" fill="#6CE9BC"/>
</svg>
