<svg width="20" height="15" viewBox="0 0 20 15" fill="none" xmlns="http://www.w3.org/2000/svg">
<path d="M4.49613 13.9011C4.30342 14.0988 4.30753 14.4154 4.50532 14.6081C4.7031 14.8008 5.01965 14.7967 5.21236 14.5989L4.49613 13.9011ZM13.3426 5.5383L13.7007 5.88723L13.3426 5.5383ZM15.5086 5.39479L15.815 4.9996L15.5086 5.39479ZM18.4021 8.27018C18.6204 8.43936 18.9344 8.39957 19.1036 8.18132C19.2728 7.96306 19.233 7.64899 19.0147 7.47982L18.4021 8.27018ZM3.56258 8.25C3.56258 8.52614 3.78644 8.75 4.06258 8.75C4.33872 8.75 4.56258 8.52614 4.56258 8.25H3.56258ZM9.89592 8.25C9.89592 8.52614 10.1198 8.75 10.3959 8.75C10.6721 8.75 10.8959 8.52614 10.8959 8.25H9.89592ZM2.87508 1.25H17.1251V0.25H2.87508V1.25ZM18.2084 2.25V12.75H19.2084V2.25H18.2084ZM17.1251 13.75H2.87508V14.75H17.1251V13.75ZM1.79175 12.75V2.25H0.791748V12.75H1.79175ZM2.87508 13.75C2.25096 13.75 1.79175 13.2772 1.79175 12.75H0.791748C0.791748 13.8797 1.7503 14.75 2.87508 14.75V13.75ZM18.2084 12.75C18.2084 13.2772 17.7492 13.75 17.1251 13.75V14.75C18.2499 14.75 19.2084 13.8797 19.2084 12.75H18.2084ZM17.1251 1.25C17.7492 1.25 18.2084 1.72284 18.2084 2.25H19.2084C19.2084 1.1203 18.2499 0.25 17.1251 0.25V1.25ZM2.87508 0.25C1.7503 0.25 0.791748 1.1203 0.791748 2.25H1.79175C1.79175 1.72284 2.25096 1.25 2.87508 1.25V0.25ZM5.21236 14.5989L13.7007 5.88723L12.9845 5.18937L4.49613 13.9011L5.21236 14.5989ZM15.2023 5.78997L18.4021 8.27018L19.0147 7.47982L15.815 4.9996L15.2023 5.78997ZM13.7007 5.88723C14.0894 5.48833 14.7526 5.44136 15.2023 5.78997L15.815 4.9996C14.9679 4.34305 13.7323 4.42189 12.9845 5.18937L13.7007 5.88723ZM0.947876 6.36298L7.08329 12.1755L7.77104 11.4495L1.63562 5.63702L0.947876 6.36298ZM4.56258 8.25C4.56258 8.2019 4.59371 8.06484 4.73044 7.85486C4.85927 7.65701 5.0549 7.43669 5.30665 7.23077C5.81323 6.81639 6.49662 6.5 7.22925 6.5V5.5C6.21298 5.5 5.31303 5.93361 4.6735 6.45673C4.3522 6.71956 4.08408 7.01487 3.89243 7.3092C3.70867 7.59141 3.56258 7.9231 3.56258 8.25H4.56258ZM7.22925 6.5C7.96188 6.5 8.64527 6.81639 9.15185 7.23077C9.4036 7.43669 9.59923 7.65701 9.72806 7.85486C9.86478 8.06484 9.89592 8.2019 9.89592 8.25H10.8959C10.8959 7.9231 10.7498 7.59141 10.5661 7.3092C10.3744 7.01487 10.1063 6.71956 9.78499 6.45673C9.14546 5.93361 8.24552 5.5 7.22925 5.5V6.5Z" fill="#6CE9BC"/>
</svg>
