<svg width="14" height="10" viewBox="0 0 14 10" fill="none" xmlns="http://www.w3.org/2000/svg">
<path d="M7.27005 0.995605H7.34122C7.99852 0.998004 11.329 1.02199 12.227 1.26348C12.4984 1.33718 12.7458 1.48084 12.9444 1.6801C13.1429 1.87935 13.2857 2.12723 13.3585 2.39896C13.4392 2.70282 13.496 3.10504 13.5344 3.52005L13.5424 3.60321L13.56 3.81111L13.5664 3.89427C13.6183 4.62514 13.6247 5.30962 13.6255 5.45915V5.51913C13.6247 5.67425 13.6175 6.40512 13.56 7.16637L13.5536 7.25033L13.5464 7.33349C13.5064 7.79088 13.4472 8.24507 13.3585 8.57932C13.2859 8.85116 13.1432 9.09915 12.9446 9.29844C12.746 9.49773 12.4986 9.64132 12.227 9.7148C11.2994 9.96428 7.77382 9.98188 7.28525 9.98267H7.1717C6.92461 9.98267 5.90268 9.97788 4.83118 9.94109L4.69524 9.9363L4.62567 9.9331L4.48893 9.9275L4.3522 9.9219C3.4646 9.88272 2.61939 9.81955 2.22997 9.714C1.95849 9.64059 1.71106 9.49712 1.51248 9.29798C1.3139 9.09884 1.17114 8.85101 1.09849 8.57932C1.00973 8.24587 0.95056 7.79088 0.910578 7.33349L0.904181 7.24953L0.897784 7.16637C0.85832 6.62454 0.836452 6.08157 0.832214 5.53832L0.832214 5.43996C0.833814 5.26804 0.840211 4.67391 0.883391 4.01822L0.888988 3.93585L0.891387 3.89427L0.897784 3.81111L0.915376 3.60321L0.923372 3.52005C0.961755 3.10504 1.01853 2.70202 1.09929 2.39896C1.17181 2.12712 1.31452 1.87913 1.51311 1.67984C1.7117 1.48055 1.95919 1.33696 2.23077 1.26348C2.62019 1.15953 3.4654 1.09556 4.353 1.05558L4.48893 1.04998L4.62647 1.04518L4.69524 1.04278L4.83198 1.03719C5.59299 1.0127 6.35432 0.999102 7.11573 0.996405H7.27005V0.995605ZM5.94986 3.56243V7.41506L9.27393 5.48954L5.94986 3.56243Z" fill="#6CE9BC"/>
</svg>
