<?xml version="1.0" standalone="no"?>
<!DOCTYPE svg PUBLIC "-//W3C//DTD SVG 20010904//EN"
 "http://www.w3.org/TR/2001/REC-SVG-20010904/DTD/svg10.dtd">
<svg version="1.0" xmlns="http://www.w3.org/2000/svg"
 width="500.000000pt" height="500.000000pt" viewBox="0 0 500.000000 500.000000"
 preserveAspectRatio="xMidYMid meet">
<metadata>
Created by potrace 1.14, written by Peter Selinger 2001-2017
</metadata>
<g transform="translate(0.000000,500.000000) scale(0.100000,-0.100000)"
fill="#000000" stroke="none">
<path d="M2960 3570 c0 -5 -3 -9 -7 -8 -14 4 -83 -23 -83 -33 0 -5 -9 -9 -20
-9 -11 0 -20 -4 -20 -10 0 -5 -3 -9 -7 -8 -5 1 -33 -11 -63 -27 -30 -16 -57
-29 -60 -30 -24 -5 -50 -18 -50 -26 0 -5 -9 -9 -19 -9 -11 0 -23 -5 -26 -10
-4 -6 -11 -8 -16 -5 -5 4 -9 1 -9 -4 0 -6 -9 -11 -20 -11 -11 0 -20 -4 -20 -8
0 -6 -35 -23 -62 -30 -5 -1 -37 -18 -73 -37 -36 -19 -65 -32 -65 -30 0 2 -29
-11 -65 -29 -36 -18 -65 -30 -65 -27 0 7 -51 31 -64 30 -5 0 -12 3 -15 8 -3 5
-26 20 -51 34 -25 13 -47 26 -50 29 -3 3 -18 12 -35 20 -16 8 -32 17 -35 21
-3 3 -21 13 -40 23 -56 28 -81 43 -93 55 -17 17 -30 14 -99 -25 -213 -123
-341 -194 -349 -194 -5 0 -9 -4 -9 -9 0 -5 -11 -12 -25 -15 -14 -4 -25 -14
-26 -24 0 -9 -2 -179 -2 -377 l-2 -360 -29 -60 c-24 -48 -30 -75 -32 -139 -2
-43 0 -84 4 -90 3 -6 8 -20 10 -31 6 -35 8 -39 27 -80 35 -72 95 -133 161
-165 36 -18 44 -27 44 -49 0 -24 9 -33 58 -59 85 -45 399 -206 545 -280 l129
-65 36 21 c107 59 332 171 332 164 0 -4 4 -2 8 4 6 10 66 44 77 44 3 0 37 17
77 38 106 54 101 53 154 25 63 -34 73 -34 114 -7 19 13 39 24 43 24 5 0 23 10
40 22 18 13 33 22 35 20 1 -1 94 43 207 98 112 56 206 100 209 98 2 -2 12 4
22 13 19 17 63 35 77 31 4 -1 7 3 7 8 0 6 8 10 18 10 10 0 28 10 39 23 19 21
19 34 17 572 -1 303 -3 558 -3 567 -1 11 -57 45 -178 105 -98 48 -180 88 -183
88 -3 1 -41 19 -85 40 -44 22 -82 39 -85 40 -13 3 -109 51 -140 70 -19 12 -37
22 -40 23 -3 0 -18 5 -33 11 -35 13 -37 13 -37 1z"/>
</g>
</svg>
